<?xml version="1.0" encoding="UTF-8"?>
<svg id="Layer_1" data-name="Layer 1" xmlns="http://www.w3.org/2000/svg" width="396.77" height="133.78" xmlns:xlink="http://www.w3.org/1999/xlink" viewBox="0 0 396.77 133.78">
  <defs>
    <linearGradient id="linear-gradient" x1="33.89" y1="90.76" x2="87.6" y2="37.06" gradientUnits="userSpaceOnUse">
      <stop offset=".26" stop-color="#ff0465"/>
      <stop offset=".94" stop-color="#ff6602"/>
    </linearGradient>
    <linearGradient id="linear-gradient-2" x1="4.45" y1="101.24" x2="40.08" y2="74.39" gradientUnits="userSpaceOnUse">
      <stop offset=".17" stop-color="#ff0068"/>
      <stop offset=".92" stop-color="#ff1355"/>
    </linearGradient>
    <linearGradient id="linear-gradient-3" x1="88.34" y1="54.5" x2="113.09" y2="29.75" gradientUnits="userSpaceOnUse">
      <stop offset=".26" stop-color="#ff6404"/>
      <stop offset=".94" stop-color="#ff6700"/>
    </linearGradient>
  </defs>
  <g>
    <polygon points="112.52 103.27 112.52 77.53 76.24 56.59 76.24 56.57 76.24 56.57 76.24 13.59 52.69 0 7.3 26.21 30.74 39.74 30.74 39.74 30.74 39.74 30.74 82.73 66.94 103.63 66.94 103.64 66.94 103.64 66.94 129.59 112.52 103.27" fill="url(#linear-gradient)"/>
    <polygon points="59.72 107.89 23.44 86.95 23.43 86.95 23.43 43.95 0 30.42 0 30.42 0 99.33 59.67 133.78 59.72 133.76 59.72 107.89" fill="url(#linear-gradient-2)"/>
    <polygon points="83.54 52.37 119.35 73.04 119.35 30.42 83.54 9.75 83.54 52.37" fill="url(#linear-gradient-3)"/>
  </g>
  <g>
    <rect x="149.24" y="44.48" width="247.52" height="45.5" fill="none"/>
    <path d="M151.09,44.48h7.38v36.88h18.44v7.38h-25.81v-44.25Z" fill="#fff"/>
    <path d="M201.65,58.31l-13.83,30.42h-8.3l22.12-47.94,22.12,47.94h-8.3l-13.83-30.42Z" fill="#fff"/>
    <path d="M233.83,88.73h-7.38v-44.25h16.59c4.59,0,8.5,1.62,11.74,4.85s4.85,7.15,4.85,11.74-1.61,8.5-4.84,11.73c-2.04,2.04-4.33,3.44-6.88,4.21l11.72,11.73h-9.22l-11.06-11.06v-7.38h3.69c2.55,0,4.73-.9,6.53-2.69,1.79-1.8,2.69-3.97,2.69-6.53s-.9-4.73-2.69-6.53c-1.8-1.8-3.97-2.69-6.53-2.69h-9.22v36.88Z" fill="#fff"/>
    <path d="M283.81,58.31l-13.83,30.42h-8.3l22.12-47.94,22.12,47.94h-8.3l-13.83-30.42Z" fill="#fff"/>
    <path d="M296.86,44.48h8.3l13.83,30.42,13.83-30.42h8.3l-22.12,47.94-22.12-47.94Z" fill="#fff"/>
    <path d="M351.16,88.73h-7.38v-44.25h7.38v44.25Z" fill="#fff"/>
    <path d="M368.94,66.61l-14.29-22.13h8.3l10.14,15.7,10.14-15.7h8.3l-14.29,22.13,14.29,22.12h-8.3l-10.14-15.7-10.14,15.7h-8.3l14.29-22.12Z" fill="#fff"/>
  </g>
</svg>