<?xml version="1.0" encoding="UTF-8"?>
<svg id="Layer_1" xmlns="http://www.w3.org/2000/svg" version="1.1" viewBox="0 0 185.4 48.5">
  <!-- Generator: Adobe Illustrator 30.3.0, SVG Export Plug-In . SVG Version: 2.1.3 Build 182)  -->
  <defs>
    <style>
      .st0 {
        fill: none;
      }

      .st1 {
        fill: #534ab7;
      }

      .st2 {
        fill: #1d9e75;
      }

      .st3 {
        fill: #fff;
      }

      .st4 {
        fill: #3c3489;
      }

      .st5 {
        fill: #00ff96;
      }

      .st6 {
        fill: #888780;
      }
    </style>
  </defs>
  <rect class="st1" width="48.5" height="48.5" rx="10" ry="10"/>
  <rect class="st3" x="7.6" y="7.6" width="9.35" height="33.31" rx="4" ry="4"/>
  <rect class="st3" x="19.58" y="19.58" width="9.35" height="33.31" rx="4" ry="4" transform="translate(-11.98 60.48) rotate(-90)"/>
  <circle class="st5" cx="29.09" cy="17.12" r="6.15"/>
  <g>
    <rect class="st0" x="52.22" y="10.97" width="97.46" height="28.87"/>
    <path class="st4" d="M54.07,28.43V10.97h2.67v15.16h7.97v2.3h-10.64Z"/>
    <path class="st4" d="M70.97,28.7c-.83,0-1.57-.15-2.24-.45s-1.19-.74-1.58-1.33-.58-1.3-.58-2.16c0-.73.14-1.34.43-1.81s.67-.85,1.14-1.12,1.01-.48,1.61-.62,1.21-.25,1.83-.32c.77-.09,1.4-.17,1.87-.23s.82-.16,1.04-.29.33-.35.33-.66v-.07c0-.48-.09-.88-.28-1.21s-.47-.59-.84-.77-.84-.27-1.38-.27-1.04.09-1.44.26-.74.4-.99.68-.43.57-.53.88l-2.43-.48c.24-.79.63-1.44,1.15-1.94s1.15-.88,1.88-1.12,1.5-.37,2.33-.37c.58,0,1.17.07,1.76.21s1.15.38,1.65.71.91.79,1.21,1.37.46,1.3.46,2.18v8.65h-2.48v-1.78h-.11c-.17.34-.42.66-.75.97s-.75.57-1.25.77-1.12.3-1.83.3ZM71.53,26.65c.71,0,1.31-.14,1.8-.41s.87-.63,1.12-1.08.39-.92.39-1.43v-1.63c-.09.09-.25.16-.5.23s-.54.13-.86.19-.64.11-.95.15-.59.08-.82.11c-.47.06-.9.17-1.31.31s-.72.35-.96.62-.36.63-.36,1.07c0,.41.1.75.31,1.02s.49.48.86.62.79.21,1.27.21Z"/>
    <path class="st4" d="M80.64,28.43v-12.94h2.47v2.07h.12c.24-.7.65-1.25,1.22-1.65s1.25-.6,2.02-.6c.17,0,.36,0,.56.02s.37.03.5.04v2.43c-.09-.02-.27-.05-.53-.08s-.53-.05-.81-.05c-.56,0-1.07.12-1.52.36s-.81.58-1.07,1.03-.39.96-.39,1.55v7.82h-2.57Z"/>
    <path class="st4" d="M93.16,28.7c-.83,0-1.57-.15-2.24-.45s-1.19-.74-1.58-1.33-.58-1.3-.58-2.16c0-.73.14-1.34.43-1.81s.67-.85,1.14-1.12,1.01-.48,1.61-.62,1.21-.25,1.83-.32c.77-.09,1.4-.17,1.87-.23s.82-.16,1.04-.29.33-.35.33-.66v-.07c0-.48-.09-.88-.28-1.21s-.47-.59-.84-.77-.84-.27-1.38-.27-1.04.09-1.44.26-.74.4-.99.68-.43.57-.53.88l-2.43-.48c.24-.79.63-1.44,1.15-1.94s1.15-.88,1.88-1.12,1.5-.37,2.33-.37c.58,0,1.17.07,1.76.21s1.15.38,1.65.71.91.79,1.21,1.37.46,1.3.46,2.18v8.65h-2.48v-1.78h-.11c-.17.34-.42.66-.75.97s-.75.57-1.25.77-1.12.3-1.83.3ZM93.72,26.65c.71,0,1.31-.14,1.8-.41s.87-.63,1.12-1.08.39-.92.39-1.43v-1.63c-.09.09-.25.16-.5.23s-.54.13-.86.19-.64.11-.95.15-.59.08-.82.11c-.47.06-.9.17-1.31.31s-.72.35-.96.62-.36.63-.36,1.07c0,.41.1.75.31,1.02s.49.48.86.62.79.21,1.27.21Z"/>
    <path class="st2" d="M106.15,28.43l-4.9-12.94h2.75l2.57,7.3c.27.77.51,1.55.72,2.34s.42,1.56.63,2.33h-.73c.22-.77.43-1.54.63-2.32s.44-1.56.7-2.34l2.55-7.3h2.73l-4.9,12.94h-2.77Z"/>
    <path class="st2" d="M117.2,13.47c-.45,0-.82-.15-1.14-.45s-.47-.66-.47-1.08.16-.79.47-1.08.69-.44,1.14-.44.82.15,1.14.44.47.65.47,1.08-.16.78-.47,1.08-.69.45-1.14.45ZM115.91,28.43v-12.94h2.57v12.94h-2.57Z"/>
    <path class="st2" d="M120.67,28.43l5.13-7.58v1.89s-4.86-7.24-4.86-7.24h2.88l1.49,2.34c.38.62.73,1.22,1.04,1.8s.62,1.13.94,1.68h-1.15c.33-.55.64-1.11.93-1.68s.63-1.17,1.03-1.8l1.52-2.34h2.84l-4.9,7.3v-1.85l5.1,7.49h-2.87l-1.76-2.72c-.39-.62-.74-1.21-1.04-1.76s-.61-1.1-.93-1.63h1.15c-.31.53-.61,1.08-.9,1.63s-.62,1.15-1.01,1.76l-1.77,2.72h-2.86Z"/>
  </g>
  <g>
    <rect class="st0" x="52.22" y="33.98" width="216.5" height="13.85"/>
    <path class="st6" d="M55.27,39.88c-.51,0-.95-.12-1.35-.37-.39-.25-.7-.59-.92-1.04-.22-.45-.33-.98-.33-1.58s.11-1.14.33-1.59c.22-.45.53-.79.92-1.04s.84-.37,1.35-.37c.3,0,.58.04.84.13.26.09.5.21.71.38.21.17.38.37.52.61.14.24.23.51.29.81h-.74c-.04-.2-.11-.38-.21-.54-.1-.15-.22-.28-.37-.39-.15-.11-.31-.19-.48-.24-.18-.05-.36-.08-.56-.08-.36,0-.69.09-.97.27-.29.18-.51.45-.67.79-.16.34-.24.76-.24,1.25s.08.9.25,1.25c.16.34.39.61.67.79.29.18.61.27.97.27.2,0,.38-.03.56-.08s.34-.13.48-.24.27-.24.37-.39c.1-.15.17-.33.22-.53h.73c-.05.3-.14.56-.29.8-.14.24-.31.44-.52.61s-.44.3-.71.38-.54.13-.84.13Z"/>
    <path class="st6" d="M61.12,39.88c-.5,0-.95-.12-1.34-.37-.39-.25-.7-.59-.92-1.04-.22-.45-.34-.98-.34-1.58s.11-1.14.34-1.59c.22-.45.53-.79.92-1.04s.84-.37,1.34-.37.95.12,1.34.37.7.59.92,1.04c.22.45.34.98.34,1.59s-.11,1.13-.34,1.58c-.22.45-.53.79-.92,1.04-.39.24-.84.37-1.34.37ZM61.12,39.2c.35,0,.66-.09.95-.27.28-.18.51-.44.68-.78s.25-.76.25-1.26-.08-.92-.25-1.27c-.17-.35-.39-.61-.68-.78-.28-.18-.6-.27-.95-.27s-.67.09-.95.27c-.28.18-.51.44-.68.78s-.25.77-.25,1.27.08.92.25,1.26c.17.34.39.6.68.78.28.18.6.27.95.27Z"/>
    <path class="st6" d="M64.88,39.8v-5.82h.86l2.38,3.74c.06.09.13.21.22.36.09.15.18.31.28.49.1.18.2.38.29.58l-.1.03c-.02-.21-.03-.41-.04-.61,0-.2-.01-.39-.02-.56,0-.17,0-.31,0-.42v-3.61h.73v5.82h-.87l-2.11-3.32c-.09-.14-.18-.29-.28-.45-.1-.16-.21-.35-.34-.57-.13-.22-.28-.49-.46-.8l.12-.04c.01.29.02.56.03.8,0,.24.02.46.02.63s0,.32,0,.43v3.33h-.73Z"/>
    <path class="st6" d="M70.52,34.63v-.65h4.42v.65h-1.84v5.17h-.73v-5.17h-1.85Z"/>
    <path class="st6" d="M75.99,39.8v-5.82h3.6v.65h-2.86v1.9h2.66v.65h-2.66v1.97h2.89v.65h-3.63Z"/>
    <path class="st6" d="M80.79,39.8v-5.82h.86l2.38,3.74c.06.09.13.21.22.36.09.15.18.31.28.49.1.18.2.38.29.58l-.1.03c-.02-.21-.03-.41-.04-.61,0-.2-.01-.39-.02-.56,0-.17,0-.31,0-.42v-3.61h.73v5.82h-.87l-2.11-3.32c-.09-.14-.18-.29-.28-.45-.1-.16-.21-.35-.34-.57-.13-.22-.28-.49-.46-.8l.12-.04c.01.29.02.56.03.8,0,.24.02.46.02.63s0,.32,0,.43v3.33h-.73Z"/>
    <path class="st6" d="M86.44,34.63v-.65h4.42v.65h-1.84v5.17h-.73v-5.17h-1.85Z"/>
    <path class="st6" d="M94.13,39.8v-5.82h1.03l1.45,3.69c.03.09.07.19.12.32.04.13.09.26.14.41.05.15.1.29.14.43.04.14.08.27.11.39h-.16c.03-.11.07-.24.12-.38s.09-.29.14-.43c.05-.15.09-.29.14-.42.05-.13.08-.24.12-.33l1.42-3.69h1.04v5.82h-.72v-3.34c0-.12,0-.26,0-.41s0-.31,0-.47,0-.33.01-.5c0-.17,0-.34,0-.49h.07c-.05.18-.11.36-.18.54-.06.18-.12.36-.18.53-.06.17-.11.32-.16.46-.05.14-.09.25-.13.35l-1.31,3.34h-.63l-1.33-3.34c-.04-.09-.08-.21-.13-.34-.05-.14-.1-.29-.16-.45-.06-.17-.12-.34-.18-.53-.06-.19-.13-.37-.19-.56h.08c0,.15,0,.3.01.47,0,.17,0,.33,0,.5s0,.33,0,.49,0,.3,0,.43v3.34h-.7Z"/>
    <path class="st6" d="M100.81,39.8l2.12-5.82h.84l2.14,5.82h-.77l-1.23-3.46c-.08-.22-.17-.49-.27-.8-.1-.31-.22-.72-.37-1.21h.15c-.14.49-.27.9-.37,1.22-.1.32-.19.58-.26.79l-1.21,3.46h-.78ZM101.88,38.18v-.64h2.96v.64h-2.96Z"/>
    <path class="st6" d="M106.8,39.8v-5.82h.86l2.38,3.74c.06.09.13.21.22.36.09.15.18.31.28.49.1.18.2.38.29.58l-.1.03c-.02-.21-.03-.41-.04-.61,0-.2-.01-.39-.02-.56,0-.17,0-.31,0-.42v-3.61h.73v5.82h-.87l-2.11-3.32c-.09-.14-.18-.29-.28-.45-.1-.16-.21-.35-.34-.57-.13-.22-.28-.49-.46-.8l.12-.04c.01.29.02.56.03.8,0,.24.02.46.02.63s0,.32,0,.43v3.33h-.73Z"/>
    <path class="st6" d="M112.28,39.8l2.12-5.82h.84l2.14,5.82h-.77l-1.23-3.46c-.08-.22-.17-.49-.27-.8-.1-.31-.22-.72-.37-1.21h.15c-.14.49-.27.9-.37,1.22-.1.32-.19.58-.26.79l-1.21,3.46h-.78ZM113.35,38.18v-.64h2.96v.64h-2.96Z"/>
    <path class="st6" d="M120.39,39.88c-.52,0-.97-.12-1.37-.37s-.7-.59-.92-1.04c-.22-.45-.33-.97-.33-1.58s.11-1.14.33-1.59c.22-.45.52-.79.91-1.04s.83-.37,1.34-.37c.31,0,.59.05.86.14.27.09.51.22.72.39.21.17.39.37.53.61s.24.49.29.78h-.75c-.06-.19-.14-.36-.24-.51s-.22-.28-.36-.39c-.14-.11-.3-.19-.47-.25s-.37-.09-.58-.09c-.35,0-.67.09-.95.27-.28.18-.5.44-.67.79-.16.34-.25.76-.25,1.26s.08.9.25,1.25.39.61.68.79c.29.18.61.27.97.27.33,0,.62-.07.87-.21s.45-.34.6-.6.22-.56.22-.91l.22.04h-1.73v-.64h2.23v.63c0,.48-.1.89-.31,1.25s-.49.63-.85.83-.77.29-1.24.29Z"/>
    <path class="st6" d="M123.97,39.8v-5.82h3.6v.65h-2.86v1.9h2.66v.65h-2.66v1.97h2.89v.65h-3.62Z"/>
    <path class="st6" d="M128.77,39.8v-5.82h1.03l1.45,3.69c.03.09.07.19.12.32.04.13.09.26.14.41.05.15.1.29.14.43.04.14.08.27.11.39h-.16c.03-.11.07-.24.12-.38s.09-.29.14-.43c.05-.15.09-.29.14-.42.05-.13.08-.24.12-.33l1.42-3.69h1.04v5.82h-.72v-3.34c0-.12,0-.26,0-.41s0-.31,0-.47,0-.33.01-.5c0-.17,0-.34,0-.49h.07c-.05.18-.11.36-.18.54-.06.18-.12.36-.18.53-.06.17-.11.32-.16.46-.05.14-.09.25-.13.35l-1.31,3.34h-.63l-1.33-3.34c-.04-.09-.08-.21-.13-.34-.05-.14-.1-.29-.16-.45-.06-.17-.12-.34-.18-.53-.06-.19-.13-.37-.19-.56h.08c0,.15,0,.3.01.47,0,.17,0,.33,0,.5s0,.33,0,.49,0,.3,0,.43v3.34h-.7Z"/>
    <path class="st6" d="M135.95,39.8v-5.82h3.6v.65h-2.86v1.9h2.66v.65h-2.66v1.97h2.89v.65h-3.62Z"/>
    <path class="st6" d="M140.75,39.8v-5.82h.86l2.38,3.74c.06.09.13.21.22.36.09.15.18.31.28.49.1.18.2.38.29.58l-.1.03c-.02-.21-.03-.41-.04-.61,0-.2-.01-.39-.02-.56,0-.17,0-.31,0-.42v-3.61h.73v5.82h-.87l-2.11-3.32c-.09-.14-.18-.29-.28-.45-.1-.16-.21-.35-.34-.57-.13-.22-.28-.49-.46-.8l.12-.04c.01.29.02.56.03.8,0,.24.02.46.02.63s0,.32,0,.43v3.33h-.73Z"/>
    <path class="st6" d="M146.39,34.63v-.65h4.42v.65h-1.84v5.17h-.73v-5.17h-1.85Z"/>
    <path class="st6" d="M155.97,39.9c-.42,0-.79-.07-1.11-.21-.31-.14-.56-.34-.73-.59s-.27-.55-.29-.9h.75c.02.23.09.42.21.58.12.15.29.27.49.35.2.08.43.12.67.12.27,0,.51-.04.72-.13s.38-.21.5-.36c.12-.16.18-.34.18-.54,0-.18-.05-.33-.15-.45-.1-.12-.24-.22-.41-.29s-.37-.15-.6-.21l-.69-.19c-.5-.14-.88-.33-1.14-.57s-.39-.56-.39-.95c0-.33.09-.62.26-.87s.41-.44.71-.57.64-.21,1.02-.21.73.07,1.03.21c.3.14.53.33.7.57s.26.52.27.83h-.72c-.03-.3-.17-.54-.4-.7-.24-.17-.54-.25-.89-.25-.25,0-.47.04-.66.12-.19.08-.34.2-.44.34-.11.14-.16.31-.16.49s.06.35.17.47.26.22.43.29c.17.07.35.13.52.18l.6.16c.18.05.37.11.57.19.19.08.37.18.54.3.16.12.3.27.4.46.1.18.15.4.15.66,0,.32-.08.61-.25.87-.17.25-.41.46-.72.6s-.69.22-1.14.22Z"/>
    <path class="st6" d="M160.85,39.8v-2.39l-2.14-3.43h.85l1.16,1.88c.13.21.24.4.35.6s.21.42.31.69h-.3c.11-.27.21-.51.31-.7.1-.19.21-.39.33-.59l1.15-1.88h.85l-2.14,3.43v2.39h-.73Z"/>
    <path class="st6" d="M166.48,39.9c-.42,0-.79-.07-1.11-.21-.31-.14-.56-.34-.73-.59s-.27-.55-.29-.9h.75c.02.23.09.42.21.58.12.15.29.27.49.35.2.08.43.12.67.12.27,0,.51-.04.72-.13s.38-.21.5-.36c.12-.16.18-.34.18-.54,0-.18-.05-.33-.15-.45-.1-.12-.24-.22-.41-.29s-.37-.15-.6-.21l-.69-.19c-.5-.14-.88-.33-1.14-.57s-.39-.56-.39-.95c0-.33.09-.62.26-.87s.41-.44.71-.57.64-.21,1.02-.21.73.07,1.03.21c.3.14.53.33.7.57s.26.52.27.83h-.72c-.03-.3-.17-.54-.4-.7-.24-.17-.54-.25-.89-.25-.25,0-.47.04-.66.12-.19.08-.34.2-.44.34-.11.14-.16.31-.16.49s.06.35.17.47.26.22.43.29c.17.07.35.13.52.18l.6.16c.18.05.37.11.57.19.19.08.37.18.54.3.16.12.3.27.4.46.1.18.15.4.15.66,0,.32-.08.61-.25.87-.17.25-.41.46-.72.6s-.69.22-1.14.22Z"/>
    <path class="st6" d="M169.34,34.63v-.65h4.42v.65h-1.84v5.17h-.73v-5.17h-1.85Z"/>
    <path class="st6" d="M174.81,39.8v-5.82h3.6v.65h-2.86v1.9h2.66v.65h-2.66v1.97h2.89v.65h-3.62Z"/>
    <path class="st6" d="M179.61,39.8v-5.82h1.03l1.45,3.69c.03.09.07.19.12.32.04.13.09.26.14.41.05.15.1.29.14.43.04.14.08.27.11.39h-.16c.03-.11.07-.24.12-.38s.09-.29.14-.43c.05-.15.09-.29.14-.42.05-.13.08-.24.12-.33l1.42-3.69h1.04v5.82h-.72v-3.34c0-.12,0-.26,0-.41s0-.31,0-.47,0-.33.01-.5c0-.17,0-.34,0-.49h.07c-.05.18-.11.36-.18.54-.06.18-.12.36-.18.53-.06.17-.11.32-.16.46-.05.14-.09.25-.13.35l-1.31,3.34h-.63l-1.33-3.34c-.04-.09-.08-.21-.13-.34-.05-.14-.1-.29-.16-.45-.06-.17-.12-.34-.18-.53-.06-.19-.13-.37-.19-.56h.08c0,.15,0,.3.01.47,0,.17,0,.33,0,.5s0,.33,0,.49,0,.3,0,.43v3.34h-.7Z"/>
  </g>
</svg>