<?xml version="1.0" encoding="UTF-8"?>
<svg id="Layer_1" data-name="Layer 1" xmlns="http://www.w3.org/2000/svg" width="119.35" height="133.78" xmlns:xlink="http://www.w3.org/1999/xlink" viewBox="0 0 119.35 133.78">
  <defs>
    <linearGradient id="linear-gradient" x1="33.89" y1="90.76" x2="87.6" y2="37.06" gradientUnits="userSpaceOnUse">
      <stop offset=".26" stop-color="#ff0465"/>
      <stop offset=".94" stop-color="#ff6602"/>
    </linearGradient>
    <linearGradient id="linear-gradient-2" x1="4.45" y1="101.24" x2="40.08" y2="74.39" gradientUnits="userSpaceOnUse">
      <stop offset=".17" stop-color="#ff0068"/>
      <stop offset=".92" stop-color="#ff1355"/>
    </linearGradient>
    <linearGradient id="linear-gradient-3" x1="88.34" y1="54.5" x2="113.09" y2="29.75" gradientUnits="userSpaceOnUse">
      <stop offset=".26" stop-color="#ff6404"/>
      <stop offset=".94" stop-color="#ff6700"/>
    </linearGradient>
  </defs>
  <polygon points="112.52 103.27 112.52 77.53 76.24 56.59 76.24 56.57 76.24 56.57 76.24 13.59 52.69 0 7.3 26.21 30.74 39.74 30.74 39.74 30.74 39.74 30.74 82.73 66.94 103.63 66.94 103.64 66.94 103.64 66.94 129.59 112.52 103.27" fill="url(#linear-gradient)"/>
  <polygon points="59.72 107.89 23.44 86.95 23.43 86.95 23.43 43.95 0 30.42 0 30.42 0 99.33 59.67 133.78 59.72 133.76 59.72 107.89" fill="url(#linear-gradient-2)"/>
  <polygon points="83.54 52.37 119.35 73.04 119.35 30.42 83.54 9.75 83.54 52.37" fill="url(#linear-gradient-3)"/>
</svg>